<svg width="20" height="19" viewBox="0 0 20 19" fill="none" xmlns="http://www.w3.org/2000/svg">
<g clip-path="url(#clip0_15_65)">
<path d="M19.9998 17.715L14.7815 12.8036C16.137 11.2433 16.8035 9.25228 16.643 7.24246C16.4826 5.23263 15.5075 3.35773 13.9195 2.00556C12.3314 0.653396 10.252 -0.0725792 8.11119 -0.0222013C5.97039 0.0281766 3.93207 0.851053 2.41783 2.27622C0.903588 3.70139 0.0292815 5.61981 -0.024245 7.63468C-0.0777715 9.64954 0.693577 11.6067 2.13025 13.1013C3.56693 14.5959 5.55901 15.5136 7.69445 15.6646C9.82989 15.8156 11.9453 15.1884 13.6032 13.9126L18.8215 18.824L19.9998 17.715ZM8.33315 14.1181C7.01461 14.1181 5.72568 13.7501 4.62935 13.0606C3.53302 12.3712 2.67854 11.3913 2.17395 10.2447C1.66937 9.09822 1.53735 7.83662 1.79458 6.61949C2.05182 5.40235 2.68676 4.28434 3.61911 3.40684C4.55146 2.52933 5.73934 1.93174 7.03255 1.68964C8.32576 1.44753 9.6662 1.57179 10.8844 2.04669C12.1025 2.5216 13.1437 3.32581 13.8763 4.35765C14.6088 5.38949 14.9998 6.6026 14.9998 7.84358C14.9978 9.50711 14.2948 11.102 13.045 12.2783C11.7952 13.4546 10.1007 14.1162 8.33315 14.1181Z" fill="#374957"/>
</g>
<defs>
<clipPath id="clip0_15_65">
<rect width="20" height="18.8235" fill="white"/>
</clipPath>
</defs>
</svg>
