<svg width="26" height="25" viewBox="0 0 26 25" fill="none" xmlns="http://www.w3.org/2000/svg">
<g clip-path="url(#clip0_451_338)">
<path d="M18.874 6.25C18.874 4.5924 18.2155 3.00268 17.0434 1.83058C15.8713 0.65848 14.2816 0 12.624 0C10.9664 0 9.37671 0.65848 8.20461 1.83058C7.0325 3.00268 6.37402 4.5924 6.37402 6.25H0.124023V21.875C0.124023 22.7038 0.453264 23.4987 1.03931 24.0847C1.62537 24.6708 2.42022 25 3.24902 25H14.7074V22.9167H3.24902C2.97276 22.9167 2.7078 22.8069 2.51245 22.6116C2.3171 22.4162 2.20736 22.1513 2.20736 21.875V8.33333H6.37402V10.4167H8.45736V8.33333H16.7907V10.4167H18.874V8.33333H23.0407V14.5833H25.124V6.25H18.874ZM8.45736 6.25C8.45736 5.14493 8.89634 4.08512 9.67774 3.30372C10.4591 2.52232 11.519 2.08333 12.624 2.08333C13.7291 2.08333 14.7889 2.52232 15.5703 3.30372C16.3517 4.08512 16.7907 5.14493 16.7907 6.25H8.45736Z" fill="#374957"/>
<path d="M21.9993 16.666H19.916V19.791H16.791V21.8743H19.916V24.9993H21.9993V21.8743H25.1243V19.791H21.9993V16.666Z" fill="#374957"/>
</g>
<defs>
<clipPath id="clip0_451_338">
<rect width="25" height="25" fill="white" transform="translate(0.124023)"/>
</clipPath>
</defs>
</svg>
