<svg width="25" height="25" viewBox="0 0 25 25" fill="none" xmlns="http://www.w3.org/2000/svg">
<g clip-path="url(#clip0_451_329)">
<path d="M12.5 25C10.0277 25 7.61099 24.2669 5.55538 22.8934C3.49976 21.5199 1.89761 19.5676 0.951511 17.2835C0.00541608 14.9995 -0.242126 12.4861 0.24019 10.0614C0.722505 7.63661 1.91301 5.40933 3.66117 3.66117C5.40933 1.91301 7.63661 0.722505 10.0614 0.24019C12.4861 -0.242126 14.9995 0.00541608 17.2835 0.951511C19.5676 1.89761 21.5199 3.49976 22.8934 5.55538C24.2669 7.61099 25 10.0277 25 12.5C24.9964 15.8141 23.6783 18.9915 21.3349 21.3349C18.9915 23.6783 15.8141 24.9964 12.5 25V25ZM12.5 2.08334C10.4398 2.08334 8.42583 2.69427 6.71282 3.83886C4.9998 4.98346 3.66467 6.61032 2.87626 8.51372C2.08785 10.4171 1.88156 12.5116 2.28349 14.5322C2.68542 16.5528 3.67751 18.4089 5.13431 19.8657C6.59111 21.3225 8.44718 22.3146 10.4678 22.7165C12.4885 23.1184 14.5829 22.9122 16.4863 22.1238C18.3897 21.3353 20.0165 20.0002 21.1611 18.2872C22.3057 16.5742 22.9167 14.5602 22.9167 12.5C22.9136 9.73826 21.8152 7.09051 19.8624 5.13766C17.9095 3.18481 15.2617 2.08637 12.5 2.08334V2.08334ZM8.33334 14.5833C8.17077 14.5826 8.01029 14.6199 7.86474 14.6923C7.71919 14.7648 7.5926 14.8702 7.49511 15.0003C7.39762 15.1304 7.33193 15.2815 7.30329 15.4415C7.27466 15.6015 7.28388 15.7661 7.33021 15.9219C7.70344 17.013 8.39725 17.9661 9.32093 18.6566C10.2446 19.347 11.3551 19.7426 12.5073 19.7917C13.6599 19.7462 14.7716 19.3519 15.6953 18.6609C16.619 17.9699 17.3111 17.0148 17.6802 15.9219C17.7219 15.7663 17.7277 15.6032 17.6972 15.4451C17.6667 15.2869 17.6006 15.1377 17.504 15.0088C17.4074 14.8799 17.2827 14.7746 17.1395 14.7009C16.9963 14.6272 16.8381 14.587 16.6771 14.5833H8.33334ZM6.25001 10.4167C6.25001 11.4583 7.1823 11.4583 8.33334 11.4583C9.48438 11.4583 10.4167 11.4583 10.4167 10.4167C10.4167 9.86414 10.1972 9.33423 9.80648 8.94353C9.41578 8.55283 8.88587 8.33334 8.33334 8.33334C7.7808 8.33334 7.2509 8.55283 6.8602 8.94353C6.4695 9.33423 6.25001 9.86414 6.25001 10.4167V10.4167ZM14.5833 10.4167C14.5833 11.4583 15.5156 11.4583 16.6667 11.4583C17.8177 11.4583 18.75 11.4583 18.75 10.4167C18.75 9.86414 18.5305 9.33423 18.1398 8.94353C17.7491 8.55283 17.2192 8.33334 16.6667 8.33334C16.1141 8.33334 15.5842 8.55283 15.1935 8.94353C14.8028 9.33423 14.5833 9.86414 14.5833 10.4167Z" fill="#374957"/>
</g>
<defs>
<clipPath id="clip0_451_329">
<rect width="25" height="25" fill="white"/>
</clipPath>
</defs>
</svg>
