<svg width="15" height="16" viewBox="0 0 15 16" fill="none" xmlns="http://www.w3.org/2000/svg">
<path d="M4.50129 6.99603C4.31945 7.20385 4.00357 7.22491 3.79575 7.04307C3.58793 6.86123 3.56687 6.54535 3.74871 6.33753L4.50129 6.99603ZM7.625 2.66678L7.24871 2.33753L7.625 1.90748L8.00129 2.33753L7.625 2.66678ZM11.5013 6.33753C11.6831 6.54534 11.6621 6.86123 11.4543 7.04307C11.2464 7.22491 10.9306 7.20385 10.7487 6.99603L11.5013 6.33753ZM8.125 12.6668C8.125 12.9429 7.90114 13.1668 7.625 13.1668C7.34886 13.1668 7.125 12.9429 7.125 12.6668L8.125 12.6668ZM3.74871 6.33753L7.24871 2.33753L8.00129 2.99603L4.50129 6.99603L3.74871 6.33753ZM8.00129 2.33753L11.5013 6.33753L10.7487 6.99603L7.24871 2.99603L8.00129 2.33753ZM8.125 2.66678L8.125 12.6668L7.125 12.6668L7.125 2.66678L8.125 2.66678Z" fill="white"/>
</svg>
