<svg width="20" height="19" viewBox="0 0 20 19" fill="none" xmlns="http://www.w3.org/2000/svg">
<g clip-path="url(#clip0_15_64)">
<path d="M14.5835 0.719238C13.6451 0.732975 12.7272 0.979515 11.9224 1.43396C11.1177 1.88841 10.4546 2.53466 10.0001 3.30747C9.54566 2.53466 8.88257 1.88841 8.07783 1.43396C7.27308 0.979515 6.35517 0.732975 5.41679 0.719238C3.92091 0.780407 2.51155 1.3963 1.49661 2.43236C0.481678 3.46842 -0.0563308 4.84043 0.000128002 6.24865C0.000128002 11.5624 9.13013 17.6996 9.51846 17.96L10.0001 18.2808L10.4818 17.96C10.8701 17.7012 20.0001 11.5624 20.0001 6.24865C20.0566 4.84043 19.5186 3.46842 18.5036 2.43236C17.4887 1.3963 16.0793 0.780407 14.5835 0.719238ZM10.0001 16.3498C7.28929 14.4439 1.66679 9.76159 1.66679 6.24865C1.60983 5.25627 1.9721 4.28295 2.6746 3.54096C3.37709 2.79898 4.36282 2.34853 5.41679 2.28787C6.47077 2.34853 7.45649 2.79898 8.15899 3.54096C8.86149 4.28295 9.22376 5.25627 9.16679 6.24865H10.8335C10.7765 5.25627 11.1388 4.28295 11.8413 3.54096C12.5438 2.79898 13.5295 2.34853 14.5835 2.28787C15.6374 2.34853 16.6232 2.79898 17.3257 3.54096C18.0282 4.28295 18.3904 5.25627 18.3335 6.24865C18.3335 9.76316 12.711 14.4439 10.0001 16.3498Z" fill="#374957"/>
</g>
<defs>
<clipPath id="clip0_15_64">
<rect width="20" height="18.8235" fill="white"/>
</clipPath>
</defs>
</svg>
