<svg width="20" height="19" viewBox="0 0 20 19" fill="none" xmlns="http://www.w3.org/2000/svg">
<g clip-path="url(#clip0_15_67)">
<path d="M17.5 18.8241H15.8333V14.8688C15.8327 14.2539 15.5728 13.6644 15.1109 13.2296C14.6489 12.7948 14.0225 12.5502 13.3692 12.5496H6.63083C5.9775 12.5502 5.35111 12.7948 4.88914 13.2296C4.42716 13.6644 4.16733 14.2539 4.16667 14.8688V18.8241H2.5V14.8688C2.50132 13.8381 2.93696 12.8499 3.71135 12.1211C4.48575 11.3922 5.53567 10.9822 6.63083 10.981H13.3692C14.4643 10.9822 15.5143 11.3922 16.2886 12.1211C17.063 12.8499 17.4987 13.8381 17.5 14.8688V18.8241Z" fill="#374957"/>
<path d="M10 9.41177C9.0111 9.41177 8.0444 9.13577 7.22215 8.61868C6.39991 8.10159 5.75904 7.36664 5.3806 6.50675C5.00217 5.64686 4.90315 4.70066 5.09608 3.78781C5.289 2.87496 5.76521 2.03645 6.46447 1.37832C7.16373 0.720194 8.05465 0.272002 9.02455 0.0904243C9.99446 -0.0911532 10.9998 0.00203899 11.9134 0.358216C12.8271 0.714393 13.6079 1.31756 14.1574 2.09144C14.7068 2.86531 15 3.77515 15 4.70589C14.9987 5.95358 14.4715 7.14982 13.5341 8.03207C12.5967 8.91433 11.3257 9.41052 10 9.41177V9.41177ZM10 1.56863C9.34073 1.56863 8.69627 1.75263 8.1481 2.09735C7.59994 2.44208 7.1727 2.93205 6.9204 3.50531C6.66811 4.07857 6.6021 4.70937 6.73072 5.31793C6.85934 5.9265 7.1768 6.48551 7.64298 6.92426C8.10915 7.36301 8.7031 7.66181 9.3497 7.78286C9.9963 7.90391 10.6665 7.84178 11.2756 7.60433C11.8847 7.36688 12.4053 6.96477 12.7716 6.44885C13.1378 5.93293 13.3333 5.32638 13.3333 4.70589C13.3333 3.87383 12.9821 3.07586 12.357 2.48751C11.7319 1.89916 10.8841 1.56863 10 1.56863Z" fill="#374957"/>
</g>
<defs>
<clipPath id="clip0_15_67">
<rect width="20" height="18.8235" fill="white"/>
</clipPath>
</defs>
</svg>
