<svg width="20" height="19" viewBox="0 0 20 19" fill="none" xmlns="http://www.w3.org/2000/svg">
<g clip-path="url(#clip0_15_66)">
<path d="M15 4.70588C15 3.4578 14.4732 2.26085 13.5355 1.37832C12.5979 0.495797 11.3261 0 10 0C8.67392 0 7.40215 0.495797 6.46447 1.37832C5.52678 2.26085 5 3.4578 5 4.70588H0V16.4706C0 17.0946 0.263392 17.6931 0.732233 18.1344C1.20107 18.5756 1.83696 18.8235 2.5 18.8235H17.5C18.163 18.8235 18.7989 18.5756 19.2678 18.1344C19.7366 17.6931 20 17.0946 20 16.4706V4.70588H15ZM10 1.56863C10.8841 1.56863 11.7319 1.89916 12.357 2.48751C12.9821 3.07586 13.3333 3.87383 13.3333 4.70588H6.66667C6.66667 3.87383 7.01786 3.07586 7.64298 2.48751C8.2681 1.89916 9.11594 1.56863 10 1.56863ZM18.3333 16.4706C18.3333 16.6786 18.2455 16.8781 18.0893 17.0252C17.933 17.1723 17.721 17.2549 17.5 17.2549H2.5C2.27899 17.2549 2.06702 17.1723 1.91074 17.0252C1.75446 16.8781 1.66667 16.6786 1.66667 16.4706V6.27451H5V7.84314H6.66667V6.27451H13.3333V7.84314H15V6.27451H18.3333V16.4706Z" fill="#374957"/>
</g>
<defs>
<clipPath id="clip0_15_66">
<rect width="20" height="18.8235" fill="white"/>
</clipPath>
</defs>
</svg>
